<svg id="Layer_1" data-name="Layer 1" xmlns="http://www.w3.org/2000/svg" viewBox="0 0 471.63 112.4"><defs><style>.cls-1{fill:#ff2c12;}.cls-2{fill:#fff;}.cls-3{fill:#2db1ff;}.cls-4{fill:#00a331;}</style></defs><circle class="cls-1" cx="165.14" cy="56.1" r="31.28"/><path class="cls-2" d="M203.13,231.27l-27.2-15.7a3.8,3.8,0,0,0-5.69,3.29v31.4a3.79,3.79,0,0,0,5.69,3.29l27.2-15.7A3.8,3.8,0,0,0,203.13,231.27Z" transform="translate(-17.96 -178.35)"/><path class="cls-3" d="M145.12,270.61c-12-7.88-19.06-21.75-20-36.05-2.28-31.17,24.88-58.35,56.06-56.07a48.34,48.34,0,0,1,29.32,12.19,39.36,39.36,0,0,1,6.72,7.84,69.7,69.7,0,0,0-8.73-4.84,54.77,54.77,0,0,0-27.31-5,49.83,49.83,0,0,0-45.89,45.87c-1.12,12.55,2.81,25.47,9.84,36.05Z" transform="translate(-17.96 -178.35)"/><path class="cls-4" d="M145.12,270.61c10.58,7,23.51,11,36,9.85A49.85,49.85,0,0,0,227,234.56a54.77,54.77,0,0,0-5-27.31,70.42,70.42,0,0,0-4.84-8.73,39.7,39.7,0,0,1,7.85,6.72,48.33,48.33,0,0,1,12.18,29.32c2.28,31.18-24.9,58.34-56.07,56.06-14.3-.95-28.17-8-36-20Z" transform="translate(-17.96 -178.35)"/><path class="cls-2" d="M48.16,194.73H61.29l4.3,62.11,25.22-62.11h13.28L118,274.37H103.53l-9.14-59.78L69,274.37H55.5l-2.9-55.44L32.77,274.37H18Z" transform="translate(-17.96 -178.35)"/><path class="cls-2" d="M240.65,194.73h14.58l14.25,57.5,30.82-57.5h16.08l-42.63,79.64H260.39Z" transform="translate(-17.96 -178.35)"/><path class="cls-2" d="M324,194.73h14.62l-11.16,79.64H313.11Z" transform="translate(-17.96 -178.35)"/><path class="cls-2" d="M353.91,194.73h42.82l-1.45,11.2-29.46.12-2.33,20.64,29.06.28-1.61,12.37H361.58L357.87,262H388l-1.62,12.43H343Z" transform="translate(-17.96 -178.35)"/><path class="cls-2" d="M403.25,194.73h13.66l1.37,57.42,21.49-57.42H451l4.91,56.55,20.36-56.55h13.29l-31,79.64H446.42l-3.37-58-22.26,58h-14.7Z" transform="translate(-17.96 -178.35)"/></svg>